<?xml version="1.0" standalone="no"?>
<!DOCTYPE svg PUBLIC "-//W3C//DTD SVG 20010904//EN"
 "http://www.w3.org/TR/2001/REC-SVG-20010904/DTD/svg10.dtd">
<svg version="1.0" xmlns="http://www.w3.org/2000/svg"
 width="512.000000pt" height="512.000000pt" viewBox="0 0 512.000000 512.000000"
 preserveAspectRatio="xMidYMid meet">

<g transform="translate(0.000000,512.000000) scale(0.100000,-0.100000)"
fill="#000000" stroke="none">
<path d="M445 4308 c-27 -5 -86 -27 -131 -48 -152 -73 -274 -232 -303 -394
-15 -83 -15 -2529 0 -2612 38 -215 234 -408 449 -444 46 -8 674 -10 2140 -8
l2075 3 66 26 c96 37 153 73 215 136 63 64 96 118 133 212 l26 66 3 1275 c2
891 0 1295 -8 1340 -37 216 -229 410 -444 449 -77 14 -4147 13 -4221 -1z
m4189 -320 c55 -16 138 -99 154 -154 7 -26 12 -108 12 -218 l0 -176 -2240 0
-2240 0 0 176 c0 110 5 192 12 218 15 51 99 137 148 153 53 17 4097 17 4154 1z
m166 -1764 c0 -675 -3 -907 -12 -938 -16 -55 -99 -138 -154 -154 -60 -18
-4088 -18 -4148 0 -55 16 -138 99 -154 154 -9 31 -12 263 -12 938 l0 896 2240
0 2240 0 0 -896z"/>
<path d="M895 2066 c-41 -18 -83 -69 -91 -110 -3 -19 -4 -84 -2 -144 3 -120
12 -142 72 -186 25 -19 42 -21 166 -21 151 0 167 5 214 69 19 25 21 42 21 166
0 124 -2 141 -21 166 -46 62 -65 69 -202 72 -91 1 -136 -2 -157 -12z"/>
</g>
</svg>
